<?xml version="1.0"?><svg width="640" height="480" xmlns="http://www.w3.org/2000/svg">
 <title>red &amp; white ribbon</title>
 <metadata id="metadata4">Ribbon BannerRibbon BannerbannersignblueOpen Clip Art ProjectGerald G.Public Domain2006/09/25image/svg+xmlhttp://purl.org/dc/dcmitype/StillImage</metadata>
 <g>
  <path d="m296.73999,248.906982c-17.604004,0.396027 -37.33197,-0.215973 -59.867996,-1.835999c-22.715988,-1.690979 -47.123993,-4.391968 -74.771988,-8.099976l0,0l0,-13.320007l0,0c-15.984009,-2.339996 -29.988007,-4.571991 -42.588013,-7.09201c-12.599991,-2.520996 -23.219994,-5.075989 -32.435997,-7.812988l0,0c10.152,-2.519989 19.296005,-5.003998 28.260002,-7.056c8.820015,-2.088013 16.955994,-4.140015 24.552002,-5.76001l0,0c-10.619995,-5.651978 -20.015991,-11.231995 -28.764008,-16.73999c-8.78299,-5.651001 -16.342995,-10.942993 -23.25499,-16.450989l0,0c15.551994,3.348999 29.699997,6.264984 42.875992,8.604004c13.068008,2.339966 20.988007,3.526978 35.568008,5.507996c14.615997,1.90799 31.5,3.779968 51.479996,5.759979l0,0l0,14.112l0,0c10.979996,1.115997 22.824005,1.979004 36.071991,2.59201c13.212006,0.539978 27.144012,0.937012 42.624023,1.044006l0,0l0.503967,0l0,0c15.444031,-0.106995 29.376038,-0.504028 42.624023,-1.044006c13.177002,-0.612 25.057007,-1.476013 36.071991,-2.59201l0,0l0,-14.112l0,0c19.944,-1.978973 36.828003,-3.85199 51.480011,-5.759979c14.579987,-1.980011 22.35498,-3.16803 35.566986,-5.507996c13.177002,-2.340027 27.181,-5.256012 42.841034,-8.604004l0,0c-6.947998,5.507996 -14.509033,10.799988 -23.257019,16.451965c-8.783997,5.508026 -18.216003,11.088013 -28.727997,16.740021l0,0c7.559998,1.619995 15.694977,3.671997 24.552002,5.76001c8.783997,2.051971 18.143951,4.53598 28.22403,7.056l0,0c-9.216064,2.735992 -19.836029,5.291992 -32.399048,7.812988c-12.671997,2.52002 -26.604004,4.752014 -42.623993,7.09201l0,0l0,13.319977l0,0c-27.575989,3.708008 -52.164001,6.40802 -74.735992,8.100006c-22.572998,1.619019 -42.299988,2.232025 -59.869019,1.834991l0,0z" id="path11" fill-rule="evenodd" stroke-width="0" fill="#ffffff"/>
  <path id="path15" d="m95.133003,167.438995c7.056,1.980011 15.767998,3.924011 26.423996,5.975998c10.691994,2.053009 22.247993,4.068008 37.187996,6.192001c14.868011,2.016006 31.752014,3.960007 51.480011,5.977005l0,0c-5.976013,0.395996 -12.708008,1.259995 -20.736008,2.591995c-8.063995,1.368011 -16.848007,2.987 -26.927994,5.256012l0,0l0,29.807983l0,0c-7.70401,-1.115997 -17.028015,-2.843994 -28.368011,-4.787994c-11.44799,-1.979004 -24.227997,-4.570999 -39.311996,-7.380005l0,0c11.484001,-3.23999 21.348,-5.723999 30.024002,-7.847992c8.712006,-2.087997 15.587997,-3.600998 21.455994,-4.535995l0,0c-6.983994,-3.456009 -14.507996,-7.703995 -23.111992,-12.888c-8.568001,-5.221008 -17.892998,-11.341003 -28.115997,-18.361008l0,0z" stroke-miterlimit="10" stroke-width="0" stroke="#000000" fill-rule="evenodd" fill="#ff0000"/>
  <path id="path17" d="m169.725006,193.68399l47.411987,-8.099991l0,12.599991l0,0c-7.919998,-0.539993 -15.587982,-1.115997 -23.579987,-1.871994c-7.956009,-0.792007 -15.805008,-1.620987 -23.832001,-2.628006l0,0z" stroke-miterlimit="10" stroke-width="0" stroke="#000000" fill-rule="evenodd" fill="#ff0000"/>
  <path id="path19" d="m500.348999,167.438995c-7.127991,1.980011 -15.768005,3.924011 -26.459991,5.975998c-10.800018,2.053009 -22.320007,4.068008 -37.188019,6.192001c-14.902985,2.016006 -31.786987,3.960007 -51.479004,5.977005l0,0c5.904022,0.395996 12.672028,1.259995 20.736023,2.591995c8.026978,1.368011 16.811981,2.987 26.927979,5.256012l0,0l0,29.807983l0,0c7.667999,-1.115997 16.992004,-2.843994 28.368011,-4.787994c11.376007,-1.979004 24.264008,-4.570999 39.347992,-7.380005l0,0c-11.556,-3.23999 -21.384003,-5.723999 -30.023987,-7.847992c-8.747009,-2.087997 -15.623993,-3.600998 -21.455994,-4.535995l0,0c6.911987,-3.456009 14.472992,-7.703995 23.112,-12.888c8.531006,-5.221008 17.85498,-11.341003 28.11499,-18.361008l0,0z" stroke-miterlimit="10" stroke-width="0" stroke="#000000" fill-rule="evenodd" fill="#ff0000"/>
  <path id="path21" d="m425.756989,193.68399l-47.447998,-8.099991l0,12.599991l0,0c7.848022,-0.539993 15.624023,-1.115997 23.615997,-1.871994c7.920013,-0.792007 15.766998,-1.620987 23.832001,-2.628006l0,0z" stroke-miterlimit="10" stroke-width="0" stroke="#000000" fill-rule="evenodd" fill="#ff0000"/>
  <path id="path23" d="m295.796997,248.070984c-11.123993,0.14502 -23.832001,-0.179993 -39.096008,-0.971985c-15.371994,-0.971985 -36.215988,-2.447998 -51.695984,-4.031982c-15.444,-1.620026 -28.727997,-3.240021 -40.283997,-5.256012l0,0l0,-41.940002l0,0c11.339996,1.619995 22.787994,3.097 34.776001,4.283997c11.987991,1.080002 20.303986,1.980011 36.467987,2.843994c16.09201,0.792007 35.604004,1.513 59.363983,2.160004l4.822998,0c23.761017,-0.647003 43.164032,-1.367996 59.328033,-2.160004c15.983978,-0.862991 24.444,-1.763992 36.467987,-2.843994c11.951996,-1.187988 23.364014,-2.664001 34.812988,-4.283997l0,0l0,41.940002l0,0c-11.627991,2.015991 -24.875977,3.635986 -40.283997,5.256012c-15.552002,1.583984 -36.503998,3.060974 -51.731995,4.031982c-15.299988,0.791992 -28.044006,1.115997 -39.059998,0.971985l-3.888,0z" stroke-miterlimit="10" stroke-width="0" stroke="#000000" fill-rule="evenodd" fill="#ff0000"/>
  <title>Layer 1</title>
 </g>
</svg>